<svg width="23" height="20" viewBox="0 0 23 20" fill="none" xmlns="http://www.w3.org/2000/svg">
<path d="M19.3 19.9L16.65 17.3H6C4.46667 17.3 3.16667 16.7667 2.1 15.7C1.03333 14.6333 0.5 13.3333 0.5 11.8C0.5 10.52 0.896667 9.38001 1.69 8.38001C2.48333 7.37334 3.50333 6.73001 4.75 6.45001C4.80333 6.31667 4.85333 6.18667 4.9 6.06001C4.96667 5.93334 5.01667 5.79667 5.05 5.65001L0.9 1.50001L2.3 0.100006L20.7 18.5M6 15.3H14.65L6.6 7.25001C6.56667 7.43667 6.54333 7.62001 6.53 7.80001C6.51 7.95334 6.5 8.12001 6.5 8.30001H6C5.03333 8.30001 4.21 8.64334 3.53 9.33001C2.84333 10.01 2.5 10.8333 2.5 11.8C2.5 12.7667 2.84333 13.6 3.53 14.3C4.21 14.9667 5.03333 15.3 6 15.3ZM21.1 16.05L19.65 14.65C19.9367 14.4167 20.15 14.1467 20.29 13.84C20.43 13.5333 20.5 13.1867 20.5 12.8C20.5 12.1 20.2567 11.51 19.77 11.03C19.29 10.5433 18.7 10.3 18 10.3H16.5V8.30001C16.5 6.92001 16.0133 5.74001 15.04 4.76001C14.0667 3.78667 12.8867 3.30001 11.5 3.30001C11.0533 3.30001 10.62 3.35334 10.2 3.46001C9.78 3.57334 9.38 3.74667 9 3.98001L7.55 2.53001C8.13667 2.13001 8.75667 1.82334 9.41 1.61001C10.07 1.40334 10.7667 1.30001 11.5 1.30001C13.4533 1.30001 15.1067 1.98001 16.46 3.34001C17.82 4.69334 18.5 6.34667 18.5 8.30001C19.6533 8.43334 20.6067 8.93334 21.36 9.80001C22.12 10.6533 22.5 11.6533 22.5 12.8C22.5 13.4667 22.3767 14.07 22.13 14.61C21.8767 15.17 21.5333 15.65 21.1 16.05Z" fill="black"/>
</svg>
