<svg width="25" height="23" viewBox="0 0 25 23" fill="none" xmlns="http://www.w3.org/2000/svg">
<path d="M20.75 5H24.5L19.5 0L14.5 5H18.25V22.5H20.75M3.25 12.5C1.8625 12.5 0.75 13.6125 0.75 15V20C0.75 21.3875 1.8625 22.5 3.25 22.5H8.25C9.6375 22.5 10.75 21.3875 10.75 20V15C10.75 13.6125 9.6375 12.5 8.25 12.5M8.5 14.375L9.825 15.6875L4.8375 20.625L1.675 17.4375L3.0125 16.125L4.85 17.9875M3.25 0C1.8625 0 0.75 1.1125 0.75 2.5V7.5C0.75 8.8875 1.8625 10 3.25 10H8.25C9.6375 10 10.75 8.8875 10.75 7.5V2.5C10.75 1.1125 9.6375 0 8.25 0M3.25 2.5H8.25V7.5H3.25V2.5Z" fill="black"/>
</svg>
