<svg width="22" height="23" viewBox="0 0 22 23" fill="none" xmlns="http://www.w3.org/2000/svg">
<path d="M18 5H21.75L16.75 0L11.75 5H15.5V22.5H18M5.5 22.5H0.5V20H5.5V18.75H3C2.33696 18.75 1.70107 18.4866 1.23223 18.0178C0.763392 17.5489 0.5 16.913 0.5 16.25V15C0.5 13.625 1.625 12.5 3 12.5H5.5C6.16304 12.5 6.79893 12.7634 7.26777 13.2322C7.73661 13.7011 8 14.337 8 15V20C8 21.3875 6.8875 22.5 5.5 22.5ZM5.5 15H3V16.25H5.5M3 0H5.5C6.16304 0 6.79893 0.263392 7.26777 0.732233C7.73661 1.20107 8 1.83696 8 2.5V7.5C8 8.8875 6.8875 10 5.5 10H3C2.33696 10 1.70107 9.73661 1.23223 9.26777C0.763392 8.79893 0.5 8.16304 0.5 7.5V2.5C0.5 1.125 1.625 0 3 0ZM3 7.5H5.5V2.5H3V7.5Z" fill="black"/>
</svg>
